<svg width="40" height="40" viewBox="0 0 40 40" fill="none" xmlns="http://www.w3.org/2000/svg">
<path fill-rule="evenodd" clip-rule="evenodd" d="M30.8052 32.9837L30.8063 32.9807L30.8353 32.9082L35.8333 7.70978V7.62793C35.8333 7.0001 35.6013 6.452 35.0965 6.12323C34.6546 5.83547 34.1468 5.81498 33.7907 5.84202C33.4138 5.8706 33.0587 5.96463 32.8128 6.0429C32.6863 6.08317 32.5805 6.12195 32.5047 6.1513C32.4667 6.16603 32.4358 6.17853 32.4135 6.18783L32.3915 6.1971L4.52512 17.1287L4.51745 17.1313C4.5024 17.1368 4.4825 17.1443 4.45845 17.1537C4.41053 17.1723 4.3453 17.199 4.26867 17.2338C4.1182 17.302 3.9103 17.4072 3.69947 17.5515C3.34138 17.7968 2.65952 18.3773 2.77465 19.2977C2.87002 20.06 3.39553 20.5442 3.74982 20.7948C3.93972 20.9293 4.12142 21.0262 4.25447 21.0895C4.32187 21.1217 4.37913 21.1462 4.42178 21.1635C4.44317 21.1722 4.46103 21.1792 4.47487 21.1845L4.49258 21.191L4.5039 21.1953L9.3793 22.8367C9.36285 23.1425 9.39318 23.4543 9.4743 23.7622L11.9165 33.0262C12.206 34.1245 13.1997 34.8897 14.3357 34.8888C15.3539 34.8882 16.2569 34.2722 16.6406 33.3532L20.4533 29.2763L27.0017 34.2967L27.0948 34.3373C27.6897 34.597 28.2457 34.6792 28.7538 34.6098C29.2613 34.5405 29.6645 34.3277 29.9675 34.0853C30.2656 33.8468 30.4698 33.5777 30.5983 33.375C30.6637 33.272 30.7123 33.1815 30.746 33.1133C30.763 33.0792 30.7763 33.0503 30.7863 33.0277L30.799 32.9987L30.8035 32.988L30.8052 32.9837ZM11.8916 23.1248C11.8361 22.9143 11.9233 22.692 12.1071 22.5753L28.6438 12.0738C28.6438 12.0738 29.6165 11.4833 29.5817 12.0738C29.5817 12.0738 29.7553 12.1781 29.234 12.6643C28.7397 13.1261 17.448 24.0278 16.3054 25.131C16.2394 25.1947 16.2 25.2677 16.1768 25.3563L14.3338 32.3888L11.8916 23.1248Z" fill="white"/>
</svg>
