<svg width="40" height="40" viewBox="0 0 40 40" fill="none" xmlns="http://www.w3.org/2000/svg">
<path d="M15.3225 20.2351C13.0496 20.2351 11.2134 22.0713 11.247 24.3218C11.2694 25.7661 12.0644 27.0201 13.2344 27.7199C12.8369 27.1097 12.6018 26.3875 12.5906 25.6094C12.557 23.3589 14.3932 21.5227 16.666 21.5227C17.1139 21.5227 17.545 21.5955 17.948 21.7242V17.2177C17.5282 17.1561 17.0971 17.1226 16.666 17.1226C16.6437 17.1226 16.6269 17.1226 16.6045 17.1226V20.4367C16.2014 20.3079 15.7703 20.2351 15.3225 20.2351Z" fill="white"/>
<path d="M25.1489 6.72095H25.1153H23.9509C24.2868 8.40599 25.2329 9.8727 26.5541 10.8692C25.6864 9.72155 25.1601 8.28843 25.1489 6.72095Z" fill="white"/>
<path d="M32.0008 13.5785C31.5585 13.5785 31.1331 13.5337 30.7132 13.4553L23.8275 14.3398L16.6059 32.5954C16.186 32.657 15.755 32.6905 15.3239 32.6905C13.4093 32.6905 11.5843 32.0692 10.1008 30.9215C10.2688 31.1231 10.4479 31.319 10.6439 31.5093C12.2561 33.0992 14.3946 33.9781 16.6731 33.9781C17.1041 33.9781 17.5352 33.9445 17.955 33.883C19.7464 33.6198 21.3979 32.7969 22.7023 31.5093C24.3033 29.9251 25.1878 27.8258 25.199 25.5865L25.1151 15.6274C25.8764 16.2152 26.7105 16.7078 27.6118 17.0829C29.0058 17.6707 30.4837 17.973 32.0008 17.973" fill="white"/>
<path d="M10.626 19.6018C12.2215 18.0175 14.3432 17.1386 16.6049 17.1218V15.9294C16.185 15.8678 15.7539 15.8342 15.3229 15.8342C13.0388 15.8342 10.8947 16.7131 9.28248 18.3142C7.6982 19.8873 6.7913 22.037 6.7969 24.2706C6.7969 26.5211 7.68701 28.6316 9.29367 30.2271C9.55119 30.479 9.8143 30.7141 10.0942 30.9268C8.82903 29.4209 8.14046 27.5399 8.13486 25.5582C8.14046 23.3245 9.04176 21.1749 10.626 19.6018Z" fill="white"/>
<path d="M30.7119 13.4555V12.2575H30.7007C29.1444 12.2575 27.7113 11.7424 26.5581 10.8691C27.5602 12.1903 29.0269 13.1308 30.7119 13.4555Z" fill="white"/>
<path d="M16.4385 29.5723C16.9703 29.6003 17.4797 29.5275 17.95 29.3764C19.5734 28.8446 20.7434 27.3331 20.7434 25.5528L20.749 18.891V6.72068H23.9512C23.8672 6.30082 23.8224 5.87536 23.8168 5.43311H19.4055V17.5979L19.3999 24.2597C19.3999 26.0399 18.2299 27.5514 16.6064 28.0832C16.1362 28.24 15.6267 28.3127 15.0949 28.2791C14.4175 28.24 13.7849 28.0384 13.2363 27.7137C13.9249 28.7774 15.1005 29.4995 16.4385 29.5723Z" fill="white"/>
<path d="M16.606 32.5953C18.3974 32.3322 20.0489 31.5093 21.3532 30.2217C22.9543 28.6374 23.8388 26.5381 23.85 24.2989L23.8276 14.3398C24.589 14.9276 25.4231 15.4202 26.3244 15.7953C27.7183 16.3831 29.1962 16.6854 30.7133 16.6854V13.4553C29.0283 13.1306 27.5616 12.1901 26.5595 10.8689C25.2384 9.87246 24.2867 8.40575 23.9564 6.7207H20.7486V18.8855L20.743 25.5473C20.743 27.3275 19.573 28.839 17.9496 29.3708C17.4793 29.5275 16.9699 29.6003 16.4381 29.5667C15.0945 29.494 13.9245 28.7718 13.2359 27.7138C12.0659 27.0196 11.271 25.76 11.2486 24.3157C11.215 22.0652 13.0512 20.229 15.324 20.229C15.7719 20.229 16.203 20.3018 16.606 20.4306V17.1165C14.3444 17.1333 12.2227 18.0122 10.6272 19.5964C9.04293 21.1695 8.13603 23.3192 8.14163 25.5473C8.14163 27.529 8.8302 29.41 10.101 30.9159C11.5901 32.0635 13.4095 32.6849 15.324 32.6849C15.7551 32.6905 16.1862 32.6569 16.606 32.5953Z" fill="white"/>
</svg>
