<svg width="315" height="71" viewBox="0 0 315 71" fill="none" xmlns="http://www.w3.org/2000/svg">
<path  d="M12.528 58.901L11.1477 60.3483L11.1544 60.3547L12.528 58.901ZM12.617 11.731L11.2576 10.264L12.617 11.731ZM61.122 11.909L59.735 13.3499L59.7418 13.3565L59.7488 13.363L61.122 11.909ZM60.944 58.99L59.5841 57.5234L59.5775 57.5297L60.944 58.99ZM48.039 47.153L46.5426 45.826L48.039 47.153ZM43.322 20.186L44.1727 18.3759L44.1286 18.3552L44.0835 18.3366L43.322 20.186ZM25.611 23.657L27.1074 24.984V24.984L25.611 23.657ZM25.611 47.242L24.1146 48.569L24.1279 48.5839L24.1414 48.5986L25.611 47.242ZM36.825 66.068C27.553 66.068 19.9614 63.1736 13.9016 57.4473L11.1544 60.3547C18.0292 66.8511 26.6356 70.068 36.825 70.068V66.068ZM13.9083 57.4537C7.92948 51.7516 4.916 44.4588 4.916 35.405H0.916C0.916 45.4566 4.31052 53.8277 11.1477 60.3483L13.9083 57.4537ZM4.916 35.405C4.916 26.1037 7.96495 18.7682 13.9764 13.198L11.2576 10.264C4.33438 16.6791 0.916 25.1263 0.916 35.405H4.916ZM13.9764 13.198C20.0367 7.58243 27.6047 4.74199 36.825 4.74199V0.741995C26.7027 0.741995 18.1319 3.89423 11.2576 10.264L13.9764 13.198ZM36.825 4.74199C46.2233 4.74199 53.8041 7.64069 59.735 13.3499L62.509 10.4681C55.7426 3.95464 47.1254 0.741995 36.825 0.741995V4.74199ZM59.7488 13.363C65.7182 19.0008 68.734 26.2879 68.734 35.405H72.734C72.734 25.2981 69.3418 16.9212 62.4952 10.455L59.7488 13.363ZM68.734 35.405C68.734 44.5735 65.6648 51.885 59.5841 57.5235L62.3039 60.4565C69.2765 53.991 72.734 45.5792 72.734 35.405H68.734ZM59.5775 57.5297C53.5138 63.204 45.9767 66.068 36.825 66.068V70.068C46.8973 70.068 55.4396 66.88 62.3105 60.4503L59.5775 57.5297ZM36.825 53.87C42.0109 53.87 46.3209 52.1048 49.5354 48.48L46.5426 45.826C44.1798 48.4905 41.0138 49.87 36.825 49.87V53.87ZM49.5354 48.48C52.6866 44.9265 54.222 40.5208 54.222 35.405H50.222C50.222 39.6639 48.9688 43.0901 46.5426 45.826L49.5354 48.48ZM54.222 35.405C54.222 31.4599 53.4258 27.9837 51.7235 25.0726C50.0126 22.1471 47.4615 19.9217 44.1727 18.3759L42.4713 21.996C45.1158 23.239 47.0147 24.9444 48.2705 27.0919C49.5349 29.2538 50.222 31.9928 50.222 35.405H54.222ZM44.0835 18.3366C41.8102 17.4006 39.3842 16.94 36.825 16.94V20.94C38.8938 20.94 40.7991 21.3101 42.5605 22.0354L44.0835 18.3366ZM36.825 16.94C31.6391 16.94 27.3291 18.7052 24.1146 22.33L27.1074 24.984C29.4702 22.3195 32.6362 20.94 36.825 20.94V16.94ZM24.1146 22.33C20.9634 25.8835 19.428 30.2892 19.428 35.405H23.428C23.428 31.1461 24.6812 27.7199 27.1074 24.984L24.1146 22.33ZM19.428 35.405C19.428 40.573 20.9592 45.0107 24.1146 48.569L27.1074 45.915C24.6855 43.1839 23.428 39.7304 23.428 35.405H19.428ZM24.1414 48.5986C27.409 52.1385 31.7023 53.87 36.825 53.87V49.87C32.6917 49.87 29.509 48.5162 27.0806 45.8854L24.1414 48.5986ZM148.318 67H146.318V69H148.318V67ZM148.318 43.326H150.318V41.326H148.318V43.326ZM121.351 43.326V41.326H119.351V43.326H121.351ZM121.351 67V69H123.351V67H121.351ZM103.106 67H101.106V69H103.106V67ZM103.106 3.81V1.81H101.106V3.81H103.106ZM121.351 3.81H123.351V1.81H121.351V3.81ZM121.351 27.484H119.351V29.484H121.351V27.484ZM148.318 27.484V29.484H150.318V27.484H148.318ZM148.318 3.81V1.81H146.318V3.81H148.318ZM166.563 3.81H168.563V1.81H166.563V3.81ZM166.563 67V69H168.563V67H166.563ZM150.318 67V43.326H146.318V67H150.318ZM148.318 41.326H121.351V45.326H148.318V41.326ZM119.351 43.326V67H123.351V43.326H119.351ZM121.351 65H103.106V69H121.351V65ZM105.106 67V3.81H101.106V67H105.106ZM103.106 5.81H121.351V1.81H103.106V5.81ZM119.351 3.81V27.484H123.351V3.81H119.351ZM121.351 29.484H148.318V25.484H121.351V29.484ZM150.318 27.484V3.81H146.318V27.484H150.318ZM148.318 5.81H166.563V1.81H148.318V5.81ZM164.563 3.81V67H168.563V3.81H164.563ZM166.563 65H148.318V69H166.563V65ZM227.909 67L226.058 67.7587L226.567 69H227.909V67ZM224.26 58.1L226.11 57.3413L225.601 56.1H224.26V58.1ZM196.314 58.1V56.1H194.972L194.463 57.3413L196.314 58.1ZM192.665 67V69H194.006L194.515 67.7587L192.665 67ZM174.153 67L172.313 66.215L171.125 69H174.153V67ZM201.12 3.81V1.81H199.799L199.28 3.02497L201.12 3.81ZM220.789 3.81L222.63 3.02936L222.113 1.81H220.789V3.81ZM247.578 67V69H250.598L249.419 66.2194L247.578 67ZM202.544 43.148L200.693 42.3887L199.561 45.148H202.544V43.148ZM218.03 43.148V45.148H221.012L219.88 42.3887L218.03 43.148ZM210.287 24.28L212.137 23.5207L210.287 19.012L208.436 23.5207L210.287 24.28ZM229.759 66.2413L226.11 57.3413L222.409 58.8587L226.058 67.7587L229.759 66.2413ZM224.26 56.1H196.314V60.1H224.26V56.1ZM194.463 57.3413L190.814 66.2413L194.515 67.7587L198.164 58.8587L194.463 57.3413ZM192.665 65H174.153V69H192.665V65ZM175.992 67.785L202.959 4.59502L199.28 3.02497L172.313 66.215L175.992 67.785ZM201.12 5.81H220.789V1.81H201.12V5.81ZM218.947 4.59063L245.736 67.7806L249.419 66.2194L222.63 3.02936L218.947 4.59063ZM247.578 65H227.909V69H247.578V65ZM202.544 45.148H218.03V41.148H202.544V45.148ZM219.88 42.3887L212.137 23.5207L208.436 25.0393L216.179 43.9073L219.88 42.3887ZM208.436 23.5207L200.693 42.3887L204.394 43.9073L212.137 25.0393L208.436 23.5207ZM257.963 58.901L256.542 60.3084L256.549 60.3152L256.556 60.322L257.963 58.901ZM258.052 11.82L256.658 10.3854L256.651 10.3921L258.052 11.82ZM304.51 11.197L303.125 12.6401L303.127 12.6418L304.51 11.197ZM311.986 24.992V26.992H314.329L313.961 24.6778L311.986 24.992ZM293.474 24.992L292.06 26.4062L292.645 26.992H293.474V24.992ZM292.94 24.369L291.276 25.4784L291.335 25.5673L291.403 25.6494L292.94 24.369ZM292.317 23.39L294.032 22.361L293.905 22.1499L293.731 21.9758L292.317 23.39ZM271.135 23.835L269.57 22.5891L269.567 22.5928L271.135 23.835ZM271.224 47.064L269.659 48.3099L269.672 48.3258L269.685 48.3415L271.224 47.064ZM293.563 45.907V43.907H292.569L291.969 44.6993L293.563 45.907ZM311.986 45.907L313.938 46.3409L314.479 43.907H311.986V45.907ZM311.007 49.556L312.897 50.2109L312.916 50.1547L312.932 50.0975L311.007 49.556ZM299.793 63.351L300.799 65.0792L300.807 65.0751L300.814 65.071L299.793 63.351ZM281.726 66.068C272.516 66.068 265.122 63.1768 259.37 57.48L256.556 60.322C263.145 66.8479 271.593 70.068 281.726 70.068V66.068ZM259.384 57.4936C253.68 51.7341 250.796 44.4252 250.796 35.405H246.796C246.796 45.3715 250.023 53.7265 256.542 60.3084L259.384 57.4936ZM250.796 35.405C250.796 26.2008 253.712 18.8774 259.452 13.2479L256.651 10.3921C250.05 16.8666 246.796 25.2666 246.796 35.405H250.796ZM259.445 13.2546C265.263 7.60291 272.637 4.74199 281.726 4.74199V0.741995C271.71 0.741995 263.3 3.93308 256.658 10.3854L259.445 13.2546ZM281.726 4.74199C290.605 4.74199 297.678 7.41279 303.125 12.6401L305.895 9.75393C299.594 3.70787 291.477 0.741995 281.726 0.741995V4.74199ZM303.127 12.6418C306.994 16.3431 309.255 20.5547 310.011 25.3062L313.961 24.6778C313.056 18.9866 310.332 14.0016 305.893 9.75216L303.127 12.6418ZM311.986 22.992H293.474V26.992H311.986V22.992ZM294.888 23.5778C294.917 23.607 294.928 23.62 294.902 23.591C294.883 23.5699 294.855 23.5372 294.814 23.4902C294.734 23.3965 294.622 23.2637 294.476 23.0886L291.403 25.6494C291.666 25.965 291.919 26.2654 292.06 26.4062L294.888 23.5778ZM294.604 23.2596C294.38 22.9241 294.19 22.625 294.032 22.361L290.602 24.419C290.799 24.7483 291.025 25.1019 291.276 25.4784L294.604 23.2596ZM293.731 21.9758C290.444 18.6891 286.404 17.029 281.726 17.029V21.029C285.355 21.029 288.375 22.2762 290.903 24.8042L293.731 21.9758ZM281.726 17.029C276.678 17.029 272.543 18.8563 269.57 22.5891L272.699 25.0809C274.83 22.4057 277.755 21.029 281.726 21.029V17.029ZM269.567 22.5928C266.757 26.1393 265.397 30.4511 265.397 35.405H269.397C269.397 31.2215 270.529 27.8201 272.702 25.0772L269.567 22.5928ZM265.397 35.405C265.397 40.3709 266.793 44.7108 269.659 48.3099L272.788 45.8181C270.552 43.0092 269.397 39.5764 269.397 35.405H265.397ZM269.685 48.3415C272.707 51.9813 276.791 53.781 281.726 53.781V49.781C277.88 49.781 274.962 48.436 272.763 45.7865L269.685 48.3415ZM281.726 53.781C287.275 53.781 291.811 51.5312 295.157 47.1147L291.969 44.6993C289.381 48.1148 286.026 49.781 281.726 49.781V53.781ZM293.563 47.907H311.986V43.907H293.563V47.907ZM310.034 45.4731C309.929 45.9417 309.62 47.0997 309.082 49.0145L312.932 50.0975C313.462 48.2149 313.805 46.9403 313.938 46.3409L310.034 45.4731ZM309.117 48.9011C307.193 54.4522 303.761 58.6709 298.772 61.631L300.814 65.071C306.624 61.6231 310.667 56.6451 312.897 50.2109L309.117 48.9011ZM298.786 61.6228C293.712 64.5781 288.041 66.068 281.726 66.068V70.068C288.702 70.068 295.075 68.4133 300.799 65.0792L298.786 61.6228Z" fill="white"/>
</svg>
